<svg xmlns="http://www.w3.org/2000/svg" fill-rule="evenodd" stroke-linejoin="round" stroke-miterlimit="2" clip-rule="evenodd" viewBox="0 0 1000 1000"><defs/><path fill="none" d="M0 0h1000v1000H0z"/><path fill="#009688" d="M897.575 537.841c-5.136-14.551-15.407-26.534-29.102-32.525-26.533-91.583-96.718-161.768-187.445-188.301-83.024-23.966-173.751-7.703-243.08 43.651-9.415 6.848-16.262 15.407-22.253 21.398-5.136 5.992-12.839 8.559-20.542 5.992l-5.136-2.568-.856-.856c-4.279-3.424-5.991-8.559-5.135-13.695.856-5.991 3.423-11.126 8.559-14.55 57.346-36.804 77.888-110.413 48.787-172.039-30.813-65.049-106.989-94.151-172.895-67.617l-1.712.856v2.567c-.856 5.992-5.135 21.398-16.262 32.525-9.415 9.415-18.83 11.127-35.093 13.695-11.126 1.712-23.965 4.279-41.939 9.415-24.822 7.703-40.228 11.983-53.067 26.533-8.559 9.415-27.389 34.237-17.974 60.77 6.847 19.686 24.821 28.245 32.525 31.669l6.847 2.568-1.712-6.848c-.856-5.135-.856-11.126.856-17.118.856 5.136 3.424 9.415 5.991 13.695 5.992 8.559 19.686 19.686 47.932 19.686 23.965 0 40.228-10.271 55.634-19.686 14.551-9.415 29.101-18.83 49.643-17.974 7.703 0 14.551 1.711 22.254 4.279-43.652 25.678-77.888 66.762-95.007 116.405-17.974 52.21-17.118 108.701 2.568 159.2v.856c57.346 106.989 162.624 177.174 280.74 190.013l-5.991 29.101-89.871-25.678 59.914 29.957-102.71 2.568 112.125 12.839-72.753 45.363 107.845-41.94 62.482-15.406-50.499-3.424 6.847-31.668h11.983c35.093 0 69.329-5.136 100.998-14.551v81.312l-95.862-5.992 63.337 23.11-95.006 33.381 112.125-12.839-29.101 47.075 71.896-55.634 111.269-14.551-106.989-9.415v-96.718c78.744-30.813 144.649-89.015 186.589-166.047 7.704-5.136 17.119-7.704 25.678-7.704h5.135l-2.567-5.135zM606.037 333.166l.682.001.214.001.474.003.242.002.466.004.224.003.592.008.089.001.678.012.2.004.484.011.239.005.46.012.23.006.541.016.138.004.676.023.18.007.5.018.235.01.457.018.234.01.508.023.17.008.672.033.153.008.523.028.23.013.456.026.236.014.486.029.19.012.671.044.111.007.561.039.223.016.457.033.237.018.47.036.205.016.668.053.043.004.625.053.213.019.462.04.236.022.46.042.214.02.612.059.054.006.665.066.2.021.47.049.234.025.453.049.22.024.55.062.114.013.662.077.182.022.483.058.23.028.449.056.225.028.511.065.15.02.659.087.158.021.503.068.224.032.448.062.227.032.487.071.173.025.656.097.122.018.535.081.216.034.45.07.226.036.471.075.188.03.654.108.064.01.588.099.207.035.454.079.224.039.46.081.198.035.649.116.652.12.192.036.463.087.221.043.452.086.204.04.574.112.073.015.649.13.175.035.475.097.216.045.449.093.207.044.529.112.116.025.647.14.149.033.496.109.209.046.448.101.208.047.501.115.141.032.646.15.113.027.527.125.199.047.452.109.206.05.483.118.157.039.645.161.059.015.577.146.186.047.458.118.203.053.472.123.167.044.64.17.635.171.17.047.469.128.197.054.466.13.172.048.628.177.643.184.149.043.484.141.189.055.464.137.174.051.574.172.052.015.642.195.12.036.508.157.179.055.466.145.172.054.54.17.084.027.641.205.08.026.544.176.165.054.472.155.168.055.52.173.102.034.642.217.021.007.597.204.149.051.482.166.162.056.509.178.111.039.635.225.622.223.128.046.496.18.154.056.503.185.117.043.624.231.63.237.1.038.518.197.142.054.503.193.117.045.615.24.638.25.064.026.548.217.127.051.508.205.113.045.608.247.646.265.015.007.591.245.109.046.518.217.106.045.597.253.006.002.643.276.61.264.086.038.533.233.096.042.582.257.021.009.633.283.618.279.058.027.553.252.084.038.576.265.027.012.625.292.626.293.022.011.582.276.068.032.577.276.026.013c.619.298 1.236.599 1.851.903l.048.024.584.29.021.011c.618.309 1.234.621 1.848.937l.023.012.598.308.012.007c.823.427 1.642.859 2.457 1.298-26.052-13.869-55.851-21.715-87.571-21.715-103.007 0-185.75 82.743-185.75 185.75 0 14.364 1.609 28.334 4.658 41.741 19.105 82.215 92.886 143.554 180.879 143.554 102.485 0 185.69-83.205 185.69-185.69 0-71.73-40.761-134.016-100.363-164.938l-.005-.003-.007-.004-.31-.16-.288-.148-.013-.007-.01-.005a177.72 177.72 0 00-1.848-.937l-.007-.004-.014-.007-.328-.163-.256-.127-.026-.013-.022-.011c-.615-.304-1.232-.605-1.851-.903l-.008-.004-.018-.009-.349-.168-.228-.108-.035-.017-.033-.015-.213-.102-.369-.174-.015-.008-.007-.003a239.1 239.1 0 00-1.251-.585l-.008-.003-.019-.009-.374-.172-.202-.093-.04-.018-.044-.02-.227-.104-.326-.148-.039-.018-.019-.009c-.416-.188-.833-.376-1.251-.562l-.005-.002-.016-.007-.403-.178-.179-.079-.042-.019-.054-.023-.242-.107-.291-.126-.054-.024-.032-.014c-.417-.181-.834-.361-1.253-.54h-.001l-.005-.002-.44-.187-.157-.066-.043-.019-.063-.026-.258-.109-.26-.108-.065-.028-.044-.018-.153-.064-.438-.181-.012-.005-.003-.002c-.417-.172-.835-.343-1.254-.512l-.041-.017-.072-.028-.275-.112-.233-.093-.071-.028-.056-.023-.166-.066-.382-.151-.048-.02-.016-.006c-.417-.165-.835-.328-1.253-.49l-.039-.015-.078-.03-.295-.113-.208-.08-.075-.029-.067-.025-.18-.069-.338-.128-.072-.027-.028-.011c-.417-.158-.835-.314-1.254-.468l-.035-.013-.082-.03-.317-.117-.186-.068-.076-.028-.078-.028-.194-.071-.302-.109-.087-.032-.041-.014c-.418-.151-.837-.3-1.257-.448l-.029-.01-.082-.029-.343-.12-.166-.058-.074-.026-.088-.03-.209-.073-.273-.093-.096-.034-.053-.017-.117-.041-.48-.163-.018-.006-.003-.001-.642-.217-.023-.007-.079-.027-.373-.124-.147-.049-.071-.023-.097-.032-.226-.075-.246-.08-.101-.033-.064-.021-.131-.043-.413-.133-.064-.021-.016-.005-.641-.205-.016-.005-.068-.022-.411-.13-.129-.04-.066-.021-.106-.033-.244-.076-.222-.069-.104-.032-.075-.023-.144-.045-.364-.112-.093-.028-.027-.008-.642-.195-.008-.002-.044-.013-.462-.139-.112-.033-.061-.018-.113-.033-.263-.078-.201-.059-.102-.03-.087-.025-.158-.047-.326-.094-.11-.032-.039-.011c-.423-.122-.847-.242-1.271-.361l-.054-.016-.118-.032-.285-.08-.181-.05-.1-.028-.097-.026-.174-.048-.295-.08-.119-.033-.051-.014a183.95 183.95 0 00-1.275-.341l-.047-.012-.12-.032-.309-.081-.163-.042-.096-.025-.107-.028-.19-.049-.268-.069-.124-.032-.062-.015-.102-.026-.475-.12-.051-.013-.008-.002-.645-.161-.038-.009-.119-.03-.337-.083-.146-.035-.09-.022-.116-.028-.208-.05-.244-.059-.125-.03-.074-.017-.116-.028-.411-.097-.093-.022-.02-.005-.646-.15-.029-.007-.112-.025-.372-.086-.129-.029-.083-.019-.125-.028-.225-.051-.223-.05-.124-.027-.085-.019-.131-.029-.365-.08-.117-.026-.032-.007-.647-.14-.02-.005-.096-.02-.416-.089-.113-.023-.075-.016-.132-.028-.245-.051-.204-.042-.12-.025-.096-.02-.147-.03-.328-.067-.131-.027-.044-.008a124.08 124.08 0 00-.649-.13l-.01-.002-.063-.013-.477-.093-.097-.019-.067-.013-.137-.027-.267-.051-.185-.035-.116-.023-.105-.02-.163-.031-.3-.056-.137-.025-.055-.011c-.433-.08-.867-.159-1.301-.236l-.059-.011-.139-.024-.292-.052-.168-.029-.109-.02-.115-.019-.18-.032-.274-.047-.14-.024-.067-.011-.092-.016-.496-.083-.056-.009-.008-.001-.654-.108-.049-.008-.139-.022-.32-.051-.151-.024-.102-.017-.124-.019-.198-.031-.252-.039-.139-.022-.077-.012-.108-.016-.427-.065-.102-.015-.02-.003-.656-.097-.039-.006-.134-.019-.353-.052-.134-.019-.095-.013-.132-.019-.217-.03-.231-.032-.136-.02-.088-.012-.123-.017-.38-.051-.126-.017-.032-.004c-.219-.03-.439-.059-.659-.087l-.028-.004-.122-.016-.392-.05-.119-.015-.086-.011-.139-.017-.237-.03-.212-.026-.132-.017-.098-.011-.14-.018-.343-.04-.14-.017-.042-.005-.662-.077-.017-.002-.097-.011-.446-.05-.104-.012-.076-.008-.144-.016-.26-.028-.193-.021-.126-.014-.108-.011-.157-.017-.313-.032-.146-.015-.054-.006-.665-.066-.006-.001-.048-.005-.523-.05-.089-.009-.066-.006-.148-.014-.284-.026-.176-.016-.119-.011-.117-.011-.174-.015-.288-.025-.148-.014-.065-.005-.087-.008-.538-.045-.038-.003-.005-.001-.668-.053-.056-.005-.149-.011-.31-.024-.16-.012-.111-.009-.126-.009-.193-.014-.264-.019-.148-.011-.075-.005-.103-.008-.458-.031-.095-.006-.016-.001-.671-.044-.045-.003-.145-.009-.342-.021-.144-.008-.102-.007-.134-.007-.212-.013-.244-.013-.143-.008-.087-.005-.118-.007-.405-.021-.125-.006-.028-.002-.672-.033-.035-.001-.135-.007-.38-.017-.128-.006-.093-.004-.141-.006-.233-.009-.224-.009-.138-.006-.097-.004-.135-.005-.365-.013-.141-.006-.039-.001-.676-.023h-.023l-.115-.004-.428-.013-.113-.003-.083-.002-.147-.004-.254-.007-.206-.005-.132-.003-.107-.002-.152-.004-.332-.007-.149-.003-.051-.001-.678-.012h-.012l-.077-.001-.495-.007-.097-.001-.073-.001-.151-.002-.278-.003-.188-.001-.125-.002h-.117l-.17-.002-.304-.001-.152-.001h-.062l-.682-.001zm0 25c88.687 0 160.69 72.002 160.69 160.689s-72.003 160.69-160.69 160.69-160.689-72.003-160.689-160.69 72.002-160.689 160.689-160.689zm-25.117 240.45l-65.012-65.013 11.82-11.82 53.192 53.192 129.181-129.181 11.821 11.821L580.92 598.616zm25.117-265.45c-102.485 0-185.689 83.205-185.689 185.689l.001.6v.079l.001.174.002.347v.085l.001.072.001.177.002.266.002.129.001.106.002.156.002.207.003.177.001.138.002.126.003.158.004.228.002.164.002.094.002.112.006.291.004.179.001.059.001.069.01.396.003.152.001.023.017.638v.014l.004.121.014.445.002.058.001.05.006.178.01.31.004.101.003.085.006.168.009.241.006.147.004.117.006.144.008.187.008.194.006.147.005.113.006.14.012.249.007.17.004.08.004.095.016.322.009.175.002.044.003.053.025.486.005.087v.008l.035.636.002.026.009.155.022.379.005.074.004.062.01.173.018.282.008.118.006.095.01.157.014.221.012.164.008.126.009.13.012.17.015.215.011.153.007.098.009.124.02.276.013.169.005.064.006.08.028.37.012.152.003.029c.016.211.033.423.051.634l.049.58.004.05.003.037.014.158.03.343.008.093.007.071.014.16.024.262.013.139.009.102.014.14.019.206.018.187.012.13.012.112.015.156.024.243.015.151.008.08.011.111.033.316.016.155.005.046.007.068.049.459.009.087.001.012.07.637.001.011.01.083.052.462.008.071.005.044.017.145.037.322.014.116.009.076.017.14.03.25.02.164.012.104.015.119.024.195.027.216.016.127.011.091.019.146.036.282.018.138.008.059.013.102.05.38.015.114.003.027c.057.423.115.845.174 1.267l.002.016.012.084.061.427.014.096.006.047.018.121.045.314.022.143.01.075.018.115.036.244.029.196.015.097.014.094.029.189.04.258.017.111.01.066.022.141.054.341.016.102.006.036.015.096.08.501.004.02c.069.427.14.854.212 1.28l.003.015.01.06.071.419.023.127.007.042.015.089.055.314.032.18.011.064.015.082.043.245.044.241.014.078.011.063.034.189.059.319.014.075.006.037.026.14.082.439.007.036c.12.64.244 1.278.37 1.915l.091.453.034.168.006.027.01.048.065.323.047.229.009.041.009.044.052.252.064.304.008.04.006.027.041.195.087.41.002.01-.002-.01-.128-.605-.014-.067-.116-.556-.018-.085-.112-.552-.016-.075-.119-.593-.006-.028c-.126-.637-.25-1.276-.37-1.915l-.007-.036-.108-.579-.02-.112-.093-.508-.025-.141-.087-.486-.026-.146-.087-.494-.022-.131-.094-.546-.013-.075-.106-.633-.106-.647-.004-.02-.095-.597-.022-.138-.076-.482-.027-.177-.069-.447-.029-.191-.065-.44-.028-.19-.067-.457-.024-.168-.075-.523-.014-.1-.089-.638-.085-.629-.018-.141-.063-.482-.026-.197-.055-.428-.027-.218-.051-.411-.027-.223-.05-.414-.026-.216-.051-.438-.022-.189-.06-.533-.011-.094-.07-.637-.01-.099-.056-.527-.021-.201-.044-.427-.023-.231-.039-.399-.024-.242-.037-.393-.023-.242-.037-.401-.021-.231-.038-.436-.017-.195-.051-.602-.002-.028-.051-.634-.015-.181-.034-.45-.018-.233-.029-.4-.018-.251-.027-.385-.017-.256-.026-.385-.016-.252-.026-.4-.014-.235-.027-.453-.011-.181-.035-.636-.005-.095-.028-.539-.011-.219-.02-.417-.011-.25-.018-.389-.011-.26-.016-.381-.01-.261-.015-.388-.009-.253-.014-.411-.007-.228-.016-.503-.004-.135-.017-.638-.004-.175-.011-.465-.005-.238-.008-.403-.004-.258-.007-.386-.003-.264-.005-.384-.003-.262-.004-.395-.002-.249-.002-.432-.001-.211-.001-.642c0-102.484 83.204-185.689 185.689-185.689zm-418.016-70.93c-14.55 2.568-29.101 2.568-43.651.856l.855-.856c9.416-13.694 25.678-16.262 36.805-18.83 9.415-1.712 15.406-.856 21.398-.856 6.847.856 12.838.856 23.965-.856 4.28-.856 8.559-1.711 11.983-2.567-12.839 10.271-29.957 19.686-51.355 23.109zm89.871-80.456c-6.847 0-11.983-5.135-11.983-11.983 0-6.847 5.136-11.982 11.983-11.982 6.848 0 11.983 5.135 11.983 11.982-.856 6.848-5.991 11.983-11.983 11.983z"/></svg>