<svg xmlns="http://www.w3.org/2000/svg" fill-rule="evenodd" stroke-linejoin="round" stroke-miterlimit="2" clip-rule="evenodd" viewBox="0 0 512 512"><defs/><g fill-rule="nonzero"><path fill="#3e82f1" d="M259.56 223.635v68.858h95.802c-4.125 22.25-16.668 41.105-35.521 53.726v44.665h57.531c33.66-30.99 53.079-76.625 53.079-130.838 0-12.623-1.132-24.76-3.236-36.411H259.56z"/><path fill="#32a753" d="M100.483 289.822v46.122c29.291 58.178 89.491 98.067 159.077 98.067 48.064 0 88.359-15.939 117.812-43.127l-57.531-44.665c-15.94 10.681-36.33 16.993-60.281 16.993-46.364 0-85.608-31.315-99.606-73.39h-59.471z"/><path fill="#f9bb00" d="M100.483 176.058C88.427 200.089 81.549 227.275 81.549 256c0 28.725 6.878 55.912 18.934 79.944l59.471-46.122c-3.56-10.68-5.582-22.089-5.582-33.822 0-11.732 2.022-23.141 5.582-33.822v-46.12h-59.471z"/><path fill="#e74133" d="M100.483 176.058l59.471 46.12c13.998-42.075 53.242-73.389 99.606-73.389 26.135 0 49.601 8.982 68.049 26.621l51.057-51.057c-30.829-28.724-71.123-46.365-119.106-46.365-69.586 0-129.786 39.892-159.077 98.07z"/></g></svg>